<svg xmlns="http://www.w3.org/2000/svg" xmlns:xlink="http://www.w3.org/1999/xlink" width="64" zoomAndPan="magnify" viewBox="0 0 48 48" height="64" preserveAspectRatio="xMidYMid meet" version="1.0"><defs><g/><clipPath id="af683f1432"><path d="M 13.726562 14.179688 L 25.484375 14.179688 L 25.484375 21 L 13.726562 21 Z M 13.726562 14.179688 " clip-rule="nonzero"/></clipPath><clipPath id="93f4268012"><path d="M 14 20 L 25.484375 20 L 25.484375 27.402344 L 14 27.402344 Z M 14 20 " clip-rule="nonzero"/></clipPath></defs><g clip-path="url(#af683f1432)"><path fill="#272636" d="M 25.132812 18.894531 L 24.375 18.367188 L 24.367188 18.367188 C 23.941406 17.03125 22.984375 15.929688 21.753906 15.335938 L 20.398438 17.402344 L 21.09375 15.074219 L 21.234375 14.605469 C 21.234375 14.605469 20.472656 14.183594 19.5625 14.183594 C 18.648438 14.183594 17.886719 14.605469 17.886719 14.605469 L 18.03125 15.089844 C 18.03125 15.089844 18.03125 15.089844 18.027344 15.089844 L 18.636719 17.113281 L 18.722656 17.398438 L 18.726562 17.402344 L 17.386719 15.359375 C 16.183594 15.957031 15.246094 17.039062 14.820312 18.367188 L 14.058594 18.894531 C 13.722656 19.132812 13.777344 19.667969 14.171875 19.8125 C 14.289062 19.855469 14.417969 19.90625 14.566406 19.945312 C 15.617188 20.292969 17.324219 20.675781 19.59375 20.675781 C 21.867188 20.675781 23.574219 20.292969 24.625 19.945312 C 24.769531 19.90625 24.902344 19.855469 25.023438 19.8125 C 25.417969 19.667969 25.476562 19.132812 25.132812 18.894531 Z M 25.132812 18.894531 " fill-opacity="1" fill-rule="nonzero"/></g><g clip-path="url(#93f4268012)"><path fill="#fbbb1d" d="M 25.15625 20.652344 L 24.058594 22.945312 L 23.261719 22.726562 L 22.34375 24.886719 L 21.1875 24.960938 L 19.601562 27.398438 L 18.011719 24.960938 L 16.855469 24.886719 L 15.9375 22.726562 L 15.140625 22.945312 L 14.042969 20.652344 C 14.132812 20.683594 14.230469 20.71875 14.320312 20.746094 C 15.386719 21.097656 17.175781 21.519531 19.59375 21.519531 C 22.011719 21.519531 23.800781 21.097656 24.84375 20.753906 C 24.957031 20.71875 25.058594 20.6875 25.15625 20.652344 Z M 25.15625 20.652344 " fill-opacity="1" fill-rule="nonzero"/></g><path fill="#272636" d="M 21.191406 24.183594 C 21.183594 24.210938 21.140625 24.21875 21.132812 24.183594 C 21.066406 23.992188 20.945312 23.695312 20.722656 23.421875 L 20.699219 23.386719 L 20.648438 23.429688 C 20.640625 23.449219 20.617188 23.449219 20.609375 23.429688 L 20.550781 23.371094 L 19.722656 24.21875 L 20.132812 24.640625 L 20.007812 24.765625 L 19.597656 24.34375 L 19.1875 24.765625 L 19.066406 24.640625 L 19.476562 24.21875 L 18.648438 23.371094 L 18.589844 23.429688 C 18.574219 23.449219 18.558594 23.449219 18.542969 23.429688 L 18.5 23.386719 L 18.46875 23.421875 C 18.253906 23.699219 18.132812 23.992188 18.058594 24.183594 C 18.050781 24.21875 18.007812 24.210938 18.007812 24.183594 C 17.984375 23.949219 18.015625 23.589844 18.289062 23.21875 L 18.3125 23.195312 L 18.261719 23.144531 C 18.253906 23.136719 18.253906 23.109375 18.261719 23.101562 L 18.5 22.859375 C 18.515625 22.839844 18.53125 22.839844 18.550781 22.859375 L 18.597656 22.898438 L 18.625 22.882812 C 18.984375 22.597656 19.335938 22.574219 19.558594 22.597656 C 19.582031 22.597656 19.589844 22.640625 19.566406 22.648438 C 19.367188 22.714844 19.089844 22.839844 18.8125 23.066406 L 18.777344 23.09375 L 18.828125 23.144531 C 18.835938 23.152344 18.835938 23.175781 18.828125 23.1875 L 18.773438 23.246094 L 19.601562 24.09375 L 20.429688 23.246094 L 20.371094 23.1875 C 20.351562 23.179688 20.351562 23.152344 20.371094 23.144531 L 20.410156 23.09375 L 20.378906 23.066406 C 20.109375 22.839844 19.828125 22.714844 19.632812 22.648438 C 19.601562 22.640625 19.609375 22.597656 19.640625 22.597656 C 19.863281 22.574219 20.214844 22.597656 20.578125 22.882812 L 20.601562 22.898438 L 20.648438 22.859375 C 20.65625 22.839844 20.683594 22.839844 20.691406 22.859375 L 20.929688 23.101562 C 20.945312 23.109375 20.945312 23.132812 20.929688 23.144531 L 20.886719 23.195312 L 20.90625 23.21875 C 21.183594 23.589844 21.207031 23.949219 21.191406 24.183594 Z M 21.191406 24.183594 " fill-opacity="1" fill-rule="nonzero"/><g fill="#000000" fill-opacity="1"><g transform="translate(7.754118, 23.781824)"><g><path d="M 5.453125 -2.203125 C 5.453125 -1.410156 5.226562 -0.828125 4.78125 -0.453125 C 4.332031 -0.078125 3.679688 0.109375 2.828125 0.109375 C 1.984375 0.109375 1.335938 -0.078125 0.890625 -0.453125 C 0.441406 -0.828125 0.21875 -1.410156 0.21875 -2.203125 L 0.21875 -2.28125 L 2.109375 -2.28125 L 2.109375 -2.203125 C 2.109375 -1.921875 2.160156 -1.71875 2.265625 -1.59375 C 2.378906 -1.46875 2.546875 -1.40625 2.765625 -1.40625 C 2.984375 -1.40625 3.144531 -1.46875 3.25 -1.59375 C 3.363281 -1.71875 3.421875 -1.921875 3.421875 -2.203125 L 3.421875 -6.328125 L 5.453125 -6.328125 Z M 5.453125 -2.203125 "/></g></g></g><g fill="#000000" fill-opacity="1"><g transform="translate(14.564348, 23.781824)"><g/></g></g><g fill="#000000" fill-opacity="1"><g transform="translate(18.299529, 23.781824)"><g/></g></g><g fill="#000000" fill-opacity="1"><g transform="translate(22.03471, 23.781824)"><g/></g></g><g fill="#000000" fill-opacity="1"><g transform="translate(25.770968, 23.781824)"><g><path d="M 4.890625 -6.328125 C 5.210938 -6.328125 5.503906 -6.257812 5.765625 -6.125 C 6.035156 -6 6.25 -5.816406 6.40625 -5.578125 C 6.5625 -5.335938 6.640625 -5.070312 6.640625 -4.78125 C 6.640625 -4 6.289062 -3.503906 5.59375 -3.296875 L 5.59375 -3.265625 C 6.394531 -3.078125 6.796875 -2.550781 6.796875 -1.6875 C 6.796875 -1.351562 6.710938 -1.054688 6.546875 -0.796875 C 6.378906 -0.546875 6.15625 -0.347656 5.875 -0.203125 C 5.59375 -0.0664062 5.285156 0 4.953125 0 L 0.6875 0 L 0.6875 -6.328125 Z M 2.71875 -3.859375 L 4.109375 -3.859375 C 4.242188 -3.859375 4.351562 -3.90625 4.4375 -4 C 4.53125 -4.101562 4.578125 -4.222656 4.578125 -4.359375 L 4.578125 -4.453125 C 4.578125 -4.585938 4.53125 -4.703125 4.4375 -4.796875 C 4.351562 -4.890625 4.242188 -4.9375 4.109375 -4.9375 L 2.71875 -4.9375 Z M 2.71875 -1.46875 L 4.265625 -1.46875 C 4.398438 -1.46875 4.507812 -1.515625 4.59375 -1.609375 C 4.6875 -1.703125 4.734375 -1.820312 4.734375 -1.96875 L 4.734375 -2.0625 C 4.734375 -2.195312 4.6875 -2.3125 4.59375 -2.40625 C 4.507812 -2.507812 4.398438 -2.5625 4.265625 -2.5625 L 2.71875 -2.5625 Z M 2.71875 -1.46875 "/></g></g></g><g fill="#000000" fill-opacity="1"><g transform="translate(33.600035, 23.781824)"><g><path d="M 3.34375 -6.4375 C 4.15625 -6.4375 4.820312 -6.269531 5.34375 -5.9375 C 5.863281 -5.613281 6.128906 -5.128906 6.140625 -4.484375 L 6.140625 -4.375 L 4.234375 -4.375 L 4.234375 -4.421875 C 4.234375 -4.597656 4.164062 -4.75 4.03125 -4.875 C 3.894531 -5 3.691406 -5.0625 3.421875 -5.0625 C 3.148438 -5.0625 2.941406 -5.019531 2.796875 -4.9375 C 2.648438 -4.863281 2.578125 -4.765625 2.578125 -4.640625 C 2.578125 -4.484375 2.675781 -4.363281 2.875 -4.28125 C 3.070312 -4.195312 3.382812 -4.113281 3.8125 -4.03125 C 4.320312 -3.925781 4.738281 -3.816406 5.0625 -3.703125 C 5.394531 -3.585938 5.679688 -3.398438 5.921875 -3.140625 C 6.171875 -2.890625 6.300781 -2.539062 6.3125 -2.09375 C 6.3125 -1.34375 6.054688 -0.785156 5.546875 -0.421875 C 5.046875 -0.0664062 4.375 0.109375 3.53125 0.109375 C 2.539062 0.109375 1.769531 -0.0546875 1.21875 -0.390625 C 0.664062 -0.722656 0.390625 -1.304688 0.390625 -2.140625 L 2.3125 -2.140625 C 2.3125 -1.828125 2.394531 -1.613281 2.5625 -1.5 C 2.726562 -1.394531 2.988281 -1.34375 3.34375 -1.34375 C 3.601562 -1.34375 3.816406 -1.367188 3.984375 -1.421875 C 4.148438 -1.484375 4.234375 -1.597656 4.234375 -1.765625 C 4.234375 -1.921875 4.140625 -2.035156 3.953125 -2.109375 C 3.765625 -2.191406 3.457031 -2.273438 3.03125 -2.359375 C 2.519531 -2.460938 2.09375 -2.570312 1.75 -2.6875 C 1.414062 -2.8125 1.125 -3.007812 0.875 -3.28125 C 0.625 -3.5625 0.5 -3.941406 0.5 -4.421875 C 0.5 -5.109375 0.765625 -5.613281 1.296875 -5.9375 C 1.835938 -6.269531 2.519531 -6.4375 3.34375 -6.4375 Z M 3.34375 -6.4375 "/></g></g></g><g fill="#000000" fill-opacity="1"><g transform="translate(14.658449, 31.747567)"><g><path d="M 0.421875 -3.21875 L 1.703125 -3.21875 C 2.109375 -3.21875 2.421875 -3.125 2.640625 -2.9375 C 2.867188 -2.75 2.984375 -2.476562 2.984375 -2.125 C 2.984375 -1.757812 2.867188 -1.472656 2.640625 -1.265625 C 2.421875 -1.066406 2.109375 -0.96875 1.703125 -0.96875 L 0.96875 -0.96875 L 0.96875 0 L 0.421875 0 Z M 0.96875 -2.734375 L 0.96875 -1.46875 L 1.6875 -1.46875 C 2.207031 -1.46875 2.46875 -1.679688 2.46875 -2.109375 C 2.46875 -2.523438 2.207031 -2.734375 1.6875 -2.734375 Z M 0.96875 -2.734375 "/></g></g></g><g fill="#000000" fill-opacity="1"><g transform="translate(17.757022, 31.747567)"><g><path d="M 0.640625 -2.765625 C 0.972656 -3.078125 1.378906 -3.234375 1.859375 -3.234375 C 2.347656 -3.234375 2.753906 -3.078125 3.078125 -2.765625 C 3.410156 -2.453125 3.578125 -2.066406 3.578125 -1.609375 C 3.578125 -1.148438 3.410156 -0.765625 3.078125 -0.453125 C 2.753906 -0.140625 2.347656 0.015625 1.859375 0.015625 C 1.378906 0.015625 0.972656 -0.140625 0.640625 -0.453125 C 0.316406 -0.765625 0.15625 -1.148438 0.15625 -1.609375 C 0.15625 -2.066406 0.316406 -2.453125 0.640625 -2.765625 Z M 1.875 -2.75 C 1.550781 -2.75 1.273438 -2.640625 1.046875 -2.421875 C 0.816406 -2.203125 0.703125 -1.929688 0.703125 -1.609375 C 0.703125 -1.296875 0.816406 -1.023438 1.046875 -0.796875 C 1.273438 -0.578125 1.546875 -0.46875 1.859375 -0.46875 C 2.179688 -0.46875 2.453125 -0.578125 2.671875 -0.796875 C 2.898438 -1.023438 3.015625 -1.296875 3.015625 -1.609375 C 3.015625 -1.929688 2.898438 -2.203125 2.671875 -2.421875 C 2.453125 -2.640625 2.1875 -2.75 1.875 -2.75 Z M 1.875 -2.75 "/></g></g></g><g fill="#000000" fill-opacity="1"><g transform="translate(21.486359, 31.747567)"><g><path d="M 2.46875 0 L 1.875 -0.984375 C 1.84375 -0.972656 1.796875 -0.96875 1.734375 -0.96875 L 0.96875 -0.96875 L 0.96875 0 L 0.421875 0 L 0.421875 -3.21875 L 1.734375 -3.21875 C 2.140625 -3.21875 2.457031 -3.125 2.6875 -2.9375 C 2.914062 -2.75 3.03125 -2.476562 3.03125 -2.125 C 3.03125 -1.863281 2.972656 -1.644531 2.859375 -1.46875 C 2.742188 -1.289062 2.578125 -1.160156 2.359375 -1.078125 L 3.09375 0 Z M 0.96875 -1.46875 L 1.734375 -1.46875 C 2.253906 -1.46875 2.515625 -1.679688 2.515625 -2.109375 C 2.515625 -2.523438 2.253906 -2.734375 1.734375 -2.734375 L 0.96875 -2.734375 Z M 0.96875 -1.46875 "/></g></g></g><g fill="#000000" fill-opacity="1"><g transform="translate(24.815138, 31.747567)"><g><path d="M 2.625 -2.734375 L 1.609375 -2.734375 L 1.609375 0 L 1.0625 0 L 1.0625 -2.734375 L 0.046875 -2.734375 L 0.046875 -3.21875 L 2.625 -3.21875 Z M 2.625 -2.734375 "/></g></g></g><g fill="#000000" fill-opacity="1"><g transform="translate(27.480925, 31.747567)"><g><path d="M 2.5 -0.734375 L 0.875 -0.734375 L 0.578125 0 L 0 0 L 1.421875 -3.21875 L 1.984375 -3.21875 L 3.390625 0 L 2.8125 0 Z M 2.296875 -1.21875 L 1.6875 -2.640625 L 1.078125 -1.21875 Z M 2.296875 -1.21875 "/></g></g></g><g fill="#000000" fill-opacity="1"><g transform="translate(30.878766, 31.747567)"><g><path d="M 0.96875 -0.5 L 2.359375 -0.5 L 2.359375 0 L 0.421875 0 L 0.421875 -3.21875 L 0.96875 -3.21875 Z M 0.96875 -0.5 "/></g></g></g></svg>