<svg xmlns="http://www.w3.org/2000/svg" xmlns:xlink="http://www.w3.org/1999/xlink" width="40" zoomAndPan="magnify" viewBox="0 0 30 30.000001" height="40" preserveAspectRatio="xMidYMid meet" version="1.0"><defs><g/><clipPath id="dfb09893a9"><path d="M 8.65625 10.441406 L 15.914062 10.441406 L 15.914062 15 L 8.65625 15 Z M 8.65625 10.441406 " clip-rule="nonzero"/></clipPath><clipPath id="2cc0018612"><path d="M 8.65625 14 L 15.914062 14 L 15.914062 18.425781 L 8.65625 18.425781 Z M 8.65625 14 " clip-rule="nonzero"/></clipPath></defs><g clip-path="url(#dfb09893a9)"><path fill="#272636" d="M 15.699219 13.289062 L 15.234375 12.972656 L 15.226562 12.972656 C 14.964844 12.164062 14.371094 11.5 13.613281 11.140625 L 12.777344 12.386719 L 13.292969 10.699219 C 13.292969 10.699219 12.824219 10.445312 12.257812 10.445312 C 11.695312 10.445312 11.226562 10.699219 11.226562 10.699219 L 11.316406 10.992188 C 11.3125 10.992188 11.3125 10.992188 11.3125 10.992188 L 11.691406 12.214844 L 11.742188 12.386719 L 10.917969 11.152344 C 10.171875 11.515625 9.597656 12.167969 9.332031 12.972656 L 8.863281 13.289062 C 8.652344 13.433594 8.6875 13.757812 8.933594 13.84375 C 9.003906 13.871094 9.085938 13.898438 9.175781 13.925781 C 9.824219 14.132812 10.878906 14.367188 12.28125 14.367188 C 13.683594 14.367188 14.734375 14.132812 15.386719 13.925781 C 15.476562 13.898438 15.558594 13.871094 15.632812 13.84375 C 15.875 13.757812 15.910156 13.433594 15.699219 13.289062 Z M 15.699219 13.289062 " fill-opacity="1" fill-rule="nonzero"/></g><g clip-path="url(#2cc0018612)"><path fill="#fbbb1d" d="M 15.714844 14.351562 L 15.035156 15.734375 L 14.542969 15.605469 L 13.976562 16.910156 L 13.261719 16.953125 L 12.285156 18.425781 L 11.300781 16.953125 L 10.589844 16.910156 L 10.019531 15.605469 L 9.53125 15.734375 L 8.851562 14.351562 C 8.90625 14.371094 8.96875 14.390625 9.023438 14.40625 C 9.679688 14.621094 10.785156 14.875 12.277344 14.875 C 13.773438 14.875 14.878906 14.621094 15.519531 14.410156 C 15.59375 14.390625 15.652344 14.371094 15.714844 14.351562 Z M 15.714844 14.351562 " fill-opacity="1" fill-rule="nonzero"/></g><path fill="#272636" d="M 13.265625 16.484375 C 13.261719 16.5 13.234375 16.503906 13.230469 16.484375 C 13.1875 16.367188 13.113281 16.191406 12.976562 16.023438 L 12.960938 16.003906 L 12.929688 16.027344 C 12.925781 16.039062 12.910156 16.039062 12.90625 16.027344 L 12.871094 15.992188 L 12.359375 16.503906 L 12.613281 16.757812 L 12.535156 16.835938 L 12.28125 16.582031 L 12.027344 16.835938 L 11.953125 16.757812 L 12.207031 16.503906 L 11.695312 15.992188 L 11.660156 16.027344 C 11.648438 16.039062 11.640625 16.039062 11.628906 16.027344 L 11.605469 16.003906 L 11.585938 16.023438 C 11.453125 16.191406 11.375 16.367188 11.332031 16.484375 C 11.328125 16.503906 11.300781 16.5 11.300781 16.484375 C 11.285156 16.34375 11.304688 16.125 11.472656 15.902344 L 11.488281 15.886719 L 11.457031 15.855469 C 11.453125 15.851562 11.453125 15.835938 11.457031 15.832031 L 11.605469 15.683594 C 11.613281 15.671875 11.625 15.671875 11.632812 15.683594 L 11.664062 15.710938 L 11.679688 15.699219 C 11.902344 15.527344 12.121094 15.511719 12.257812 15.527344 C 12.273438 15.527344 12.277344 15.550781 12.261719 15.558594 C 12.140625 15.597656 11.96875 15.671875 11.796875 15.808594 L 11.777344 15.824219 L 11.808594 15.855469 C 11.8125 15.859375 11.8125 15.875 11.808594 15.882812 L 11.773438 15.917969 L 12.285156 16.429688 L 12.792969 15.917969 L 12.757812 15.882812 C 12.75 15.875 12.75 15.863281 12.757812 15.855469 L 12.785156 15.824219 L 12.765625 15.808594 C 12.597656 15.671875 12.425781 15.597656 12.304688 15.558594 C 12.285156 15.550781 12.289062 15.527344 12.308594 15.527344 C 12.445312 15.511719 12.664062 15.527344 12.886719 15.699219 L 12.902344 15.710938 L 12.933594 15.683594 C 12.9375 15.671875 12.953125 15.671875 12.957031 15.683594 L 13.105469 15.832031 C 13.113281 15.835938 13.113281 15.851562 13.105469 15.855469 L 13.078125 15.886719 L 13.089844 15.902344 C 13.261719 16.125 13.277344 16.34375 13.265625 16.484375 Z M 13.265625 16.484375 " fill-opacity="1" fill-rule="nonzero"/><g fill="#000000" fill-opacity="1"><g transform="translate(4.96915, 16.372397)"><g><path d="M 3.375 -1.359375 C 3.375 -0.867188 3.234375 -0.507812 2.953125 -0.28125 C 2.671875 -0.0507812 2.269531 0.0625 1.75 0.0625 C 1.226562 0.0625 0.828125 -0.0507812 0.546875 -0.28125 C 0.265625 -0.507812 0.125 -0.867188 0.125 -1.359375 L 0.125 -1.40625 L 1.3125 -1.40625 L 1.3125 -1.359375 C 1.3125 -1.179688 1.34375 -1.054688 1.40625 -0.984375 C 1.46875 -0.910156 1.570312 -0.875 1.71875 -0.875 C 1.851562 -0.875 1.953125 -0.910156 2.015625 -0.984375 C 2.078125 -1.054688 2.109375 -1.179688 2.109375 -1.359375 L 2.109375 -3.90625 L 3.375 -3.90625 Z M 3.375 -1.359375 "/></g></g></g><g fill="#000000" fill-opacity="1"><g transform="translate(9.174056, 16.372397)"><g/></g></g><g fill="#000000" fill-opacity="1"><g transform="translate(11.480304, 16.372397)"><g/></g></g><g fill="#000000" fill-opacity="1"><g transform="translate(13.786552, 16.372397)"><g/></g></g><g fill="#000000" fill-opacity="1"><g transform="translate(16.093466, 16.372397)"><g><path d="M 3.03125 -3.90625 C 3.226562 -3.90625 3.40625 -3.863281 3.5625 -3.78125 C 3.726562 -3.707031 3.859375 -3.59375 3.953125 -3.4375 C 4.054688 -3.289062 4.109375 -3.128906 4.109375 -2.953125 C 4.109375 -2.472656 3.890625 -2.171875 3.453125 -2.046875 L 3.453125 -2.015625 C 3.953125 -1.898438 4.203125 -1.578125 4.203125 -1.046875 C 4.203125 -0.835938 4.148438 -0.65625 4.046875 -0.5 C 3.941406 -0.34375 3.800781 -0.21875 3.625 -0.125 C 3.457031 -0.0390625 3.269531 0 3.0625 0 L 0.421875 0 L 0.421875 -3.90625 Z M 1.671875 -2.390625 L 2.546875 -2.390625 C 2.628906 -2.390625 2.695312 -2.414062 2.75 -2.46875 C 2.800781 -2.53125 2.828125 -2.609375 2.828125 -2.703125 L 2.828125 -2.75 C 2.828125 -2.832031 2.796875 -2.898438 2.734375 -2.953125 C 2.679688 -3.015625 2.617188 -3.046875 2.546875 -3.046875 L 1.671875 -3.046875 Z M 1.671875 -0.90625 L 2.640625 -0.90625 C 2.722656 -0.90625 2.789062 -0.9375 2.84375 -1 C 2.894531 -1.0625 2.921875 -1.132812 2.921875 -1.21875 L 2.921875 -1.28125 C 2.921875 -1.363281 2.894531 -1.429688 2.84375 -1.484375 C 2.789062 -1.546875 2.722656 -1.578125 2.640625 -1.578125 L 1.671875 -1.578125 Z M 1.671875 -0.90625 "/></g></g></g><g fill="#000000" fill-opacity="1"><g transform="translate(20.927441, 16.372397)"><g><path d="M 2.0625 -3.984375 C 2.5625 -3.984375 2.972656 -3.878906 3.296875 -3.671875 C 3.617188 -3.472656 3.785156 -3.175781 3.796875 -2.78125 L 3.796875 -2.703125 L 2.609375 -2.703125 L 2.609375 -2.734375 C 2.609375 -2.847656 2.566406 -2.941406 2.484375 -3.015625 C 2.398438 -3.085938 2.273438 -3.125 2.109375 -3.125 C 1.941406 -3.125 1.8125 -3.097656 1.71875 -3.046875 C 1.632812 -3.003906 1.59375 -2.945312 1.59375 -2.875 C 1.59375 -2.769531 1.648438 -2.691406 1.765625 -2.640625 C 1.890625 -2.597656 2.085938 -2.546875 2.359375 -2.484375 C 2.671875 -2.421875 2.925781 -2.351562 3.125 -2.28125 C 3.332031 -2.21875 3.507812 -2.101562 3.65625 -1.9375 C 3.8125 -1.78125 3.894531 -1.566406 3.90625 -1.296875 C 3.90625 -0.835938 3.75 -0.492188 3.4375 -0.265625 C 3.125 -0.046875 2.703125 0.0625 2.171875 0.0625 C 1.566406 0.0625 1.09375 -0.0351562 0.75 -0.234375 C 0.414062 -0.441406 0.25 -0.804688 0.25 -1.328125 L 1.4375 -1.328125 C 1.4375 -1.128906 1.484375 -0.992188 1.578125 -0.921875 C 1.679688 -0.859375 1.84375 -0.828125 2.0625 -0.828125 C 2.21875 -0.828125 2.347656 -0.84375 2.453125 -0.875 C 2.554688 -0.914062 2.609375 -0.988281 2.609375 -1.09375 C 2.609375 -1.1875 2.550781 -1.253906 2.4375 -1.296875 C 2.320312 -1.347656 2.132812 -1.398438 1.875 -1.453125 C 1.5625 -1.523438 1.300781 -1.597656 1.09375 -1.671875 C 0.882812 -1.742188 0.703125 -1.863281 0.546875 -2.03125 C 0.390625 -2.207031 0.3125 -2.441406 0.3125 -2.734375 C 0.3125 -3.160156 0.472656 -3.472656 0.796875 -3.671875 C 1.128906 -3.878906 1.550781 -3.984375 2.0625 -3.984375 Z M 2.0625 -3.984375 "/></g></g></g></svg>